{
  "source": "C:\\Users\\Peter\\Desktop\\stuff\\MIUN\\quantitative_research\\video_compression\\videos\\BVI-HD\\BVI-HD_CDVL_videos\\ORIG\\Boxing_1920x1080_30fps.mp4",
  "output": "C:\\Users\\Peter\\Desktop\\stuff\\MIUN\\quantitative_research\\video_compression\\compressed_videos\\BVI-HD\\hevc\\2\\Boxing_1920x1080_30fps_hevc.mp4",
  "codec": "hevc",
  "ok": "Input #0, mov,mp4,m4a,3gp,3g2,mj2, from 'C:\\Users\\Peter\\Desktop\\stuff\\MIUN\\quantitative_research\\video_compression\\videos\\BVI-HD\\BVI-HD_CDVL_videos\\ORIG\\Boxing_1920x1080_30fps.mp4':\n  Metadata:\n    major_brand     : isom\n    minor_version   : 512\n    compatible_brands: isomiso2avc1mp41\n    encoder         : Lavf54.28.101\n  Duration: 00:00:05.00, start: 0.000000, bitrate: 238363 kb/s\n  Stream #0:0[0x1](und): Video: h264 (High 4:4:4 Predictive) (avc1 / 0x31637661), yuv420p(progressive), 1920x1080, 238359 kb/s, 30 fps, 30 tbr, 30 tbn (default)\n    Metadata:\n      handler_name    : VideoHandler\n      vendor_id       : [0][0][0][0]\n[out#0/mp4 @ 000001cb941dc580] Codec AVOption b:a (set bitrate (in bits/s)) has not been used for any stream. The most likely reason is either wrong type (e.g. a video option with no video streams) or that it is a private option of some decoder which was not actually used for any stream.\nStream mapping:\n  Stream #0:0 -> #0:0 (h264 (native) -> hevc (libx265))\nPress [q] to stop, [?] for help\n[libx265 @ 000001cb9605b240] Unknown option: \"aq-mode.\nx265 [info]: HEVC encoder version 4.1+190-8f11c33ac\nx265 [info]: build info [Windows][GCC 15.1.0][64 bit] 10bit\nx265 [info]: using cpu capabilities: MMX2 SSE2Fast LZCNT SSSE3 SSE4.2 AVX FMA3 BMI2 AVX2\nx265 [info]: Main 10 profile, Level-4 (Main tier)\nx265 [info]: Thread pool created using 12 threads\nx265 [info]: Slices                              : 1\nx265 [info]: frame threads / pool features       : 3 / wpp(17 rows)\nx265 [info]: Coding QT: max CU size, min CU size : 64 / 8\nx265 [info]: Residual QT: max TU size, max depth : 32 / 1 inter / 1 intra\nx265 [info]: ME / range / subpel / merge         : star / 57 / 3 / 3\nx265 [info]: Keyframe min / max / scenecut / bias  : 25 / 250 / 40 / 5.00 \nx265 [info]: Lookahead / bframes / badapt        : 25 / 4 / 2\nx265 [info]: b-pyramid / weightp / weightb       : 1 / 1 / 0\nx265 [info]: References / ref-limit  cu / depth  : 4 / on / on\nx265 [info]: AQ: mode / str / qg-size / cu-tree  : 2 / 1.0 / 32 / 1\nx265 [info]: Rate Control / qCompress            : ABR-2000 kbps / 0.60\nx265 [info]: VBV/HRD buffer / max-rate / init    : 2000 / 2000 / 0.750\nx265 [info]: tools: rect limit-modes rd=4 psy-rd=2.00 rdoq=2 psy-rdoq=1.00\nx265 [info]: tools: rskip mode=1 signhide tmvp strong-intra-smoothing lslices=4\nx265 [info]: tools: deblock sao dhdr10-info\nOutput #0, mp4, to 'C:\\Users\\Peter\\Desktop\\stuff\\MIUN\\quantitative_research\\video_compression\\compressed_videos\\BVI-HD\\hevc\\2\\Boxing_1920x1080_30fps_hevc.mp4':\n  Metadata:\n    major_brand     : isom\n    minor_version   : 512\n    compatible_brands: isomiso2avc1mp41\n    encoder         : Lavf62.3.100\n  Stream #0:0(und): Video: hevc (hev1 / 0x31766568), yuv420p10le(tv, progressive), 1920x1080, q=2-31, 2000 kb/s, 30 fps, 15360 tbn (default)\n    Metadata:\n      encoder         : Lavc62.11.100 libx265\n      handler_name    : VideoHandler\n      vendor_id       : [0][0][0][0]\n    Side data:\n      cpb: bitrate max/min/avg: 2000000/0/2000000 buffer size: 2000000 vbv_delay: N/A\nframe=    0 fps=0.0 q=0.0 size=       0KiB time=N/A bitrate=N/A speed=N/A elapsed=0:00:01.11    \nframe=    0 fps=0.0 q=0.0 size=       0KiB time=N/A bitrate=N/A speed=N/A elapsed=0:00:01.68    \nframe=    0 fps=0.0 q=0.0 size=       0KiB time=N/A bitrate=N/A speed=N/A elapsed=0:00:02.20    \nframe=    0 fps=0.0 q=0.0 size=       0KiB time=N/A bitrate=N/A speed=N/A elapsed=0:00:02.73    \nframe=    0 fps=0.0 q=0.0 size=       0KiB time=N/A bitrate=N/A speed=N/A elapsed=0:00:03.28    \nframe=    0 fps=0.0 q=0.0 size=       0KiB time=N/A bitrate=N/A speed=N/A elapsed=0:00:03.81    \nframe=    0 fps=0.0 q=0.0 size=       0KiB time=N/A bitrate=N/A speed=N/A elapsed=0:00:04.37    \nframe=    0 fps=0.0 q=0.0 size=       0KiB time=N/A bitrate=N/A speed=N/A elapsed=0:00:04.89    \nframe=    0 fps=0.0 q=0.0 size=       0KiB time=N/A bitrate=N/A speed=N/A elapsed=0:00:05.41    \nframe=    0 fps=0.0 q=0.0 size=       0KiB time=N/A bitrate=N/A speed=N/A elapsed=0:00:05.94    \nframe=    0 fps=0.0 q=0.0 size=       0KiB time=N/A bitrate=N/A speed=N/A elapsed=0:00:06.46    \nframe=    0 fps=0.0 q=0.0 size=       0KiB time=N/A bitrate=N/A speed=N/A elapsed=0:00:07.00    \nframe=    1 fps=0.1 q=35.6 size=       0KiB time=-00:00:00.03 bitrate=N/A speed=N/A elapsed=0:00:07.53    \nframe=    1 fps=0.1 q=35.6 size=       0KiB time=-00:00:00.03 bitrate=N/A speed=N/A elapsed=0:00:08.07    \nframe=    2 fps=0.2 q=38.9 size=       0KiB time=00:00:00.00 bitrate=N/A speed=   0x elapsed=0:00:08.60    \nframe=    3 fps=0.3 q=41.0 size=       0KiB time=00:00:00.03 bitrate=  10.6kbits/s speed=0.00365x elapsed=0:00:09.12    \nframe=    3 fps=0.3 q=41.0 size=       0KiB time=00:00:00.03 bitrate=  10.6kbits/s speed=0.00345x elapsed=0:00:09.65    \nframe=    3 fps=0.3 q=41.0 size=       0KiB time=00:00:00.03 bitrate=  10.6kbits/s speed=0.00327x elapsed=0:00:10.18    \nframe=    3 fps=0.3 q=41.0 size=       0KiB time=00:00:00.03 bitrate=  10.6kbits/s speed=0.00309x elapsed=0:00:10.77    \nframe=    3 fps=0.3 q=41.0 size=       0KiB time=00:00:00.03 bitrate=  10.6kbits/s speed=0.00295x elapsed=0:00:11.31    \nframe=    3 fps=0.3 q=41.0 size=       0KiB time=00:00:00.03 bitrate=  10.6kbits/s speed=0.00281x elapsed=0:00:11.86    \nframe=    4 fps=0.3 q=42.7 size=       0KiB time=00:00:00.06 bitrate=   5.3kbits/s speed=0.00537x elapsed=0:00:12.42    \nframe=    4 fps=0.3 q=42.7 size=       0KiB time=00:00:00.06 bitrate=   5.3kbits/s speed=0.00514x elapsed=0:00:12.97    \nframe=    5 fps=0.4 q=41.1 size=       0KiB time=00:00:00.10 bitrate=   3.5kbits/s speed=0.0074x elapsed=0:00:13.51    \nframe=    5 fps=0.4 q=41.1 size=       0KiB time=00:00:00.10 bitrate=   3.5kbits/s speed=0.00712x elapsed=0:00:14.05    \nframe=    5 fps=0.3 q=41.1 size=       0KiB time=00:00:00.10 bitrate=   3.5kbits/s speed=0.00685x elapsed=0:00:14.60    \nframe=    6 fps=0.4 q=37.2 size=       0KiB time=00:00:00.13 bitrate=   2.6kbits/s speed=0.0088x elapsed=0:00:15.14    \nframe=    6 fps=0.4 q=37.2 size=       0KiB time=00:00:00.13 bitrate=   2.6kbits/s speed=0.0085x elapsed=0:00:15.69    \nframe=    6 fps=0.4 q=37.2 size=       0KiB time=00:00:00.13 bitrate=   2.6kbits/s speed=0.00823x elapsed=0:00:16.20    \nframe=    6 fps=0.4 q=37.2 size=       0KiB time=00:00:00.13 bitrate=   2.6kbits/s speed=0.00797x elapsed=0:00:16.71    \nframe=    7 fps=0.4 q=39.8 size=       0KiB time=00:00:00.16 bitrate=   2.1kbits/s speed=0.00967x elapsed=0:00:17.24    \nframe=    7 fps=0.4 q=39.8 size=       0KiB time=00:00:00.16 bitrate=   2.1kbits/s speed=0.00938x elapsed=0:00:17.76    \nframe=    7 fps=0.4 q=39.8 size=       0KiB time=00:00:00.16 bitrate=   2.1kbits/s speed=0.0091x elapsed=0:00:18.31    \nframe=    8 fps=0.4 q=40.9 size=       0KiB time=00:00:00.20 bitrate=   1.8kbits/s speed=0.0106x elapsed=0:00:18.83    \nframe=    8 fps=0.4 q=40.9 size=       0KiB time=00:00:00.20 bitrate=   1.8kbits/s speed=0.0103x elapsed=0:00:19.37    \nframe=    9 fps=0.5 q=40.4 size=       0KiB time=00:00:00.23 bitrate=   1.5kbits/s speed=0.0117x elapsed=0:00:19.89    \nframe=    9 fps=0.4 q=40.4 size=       0KiB time=00:00:00.23 bitrate=   1.5kbits/s speed=0.0114x elapsed=0:00:20.44    \nframe=    9 fps=0.4 q=40.4 size=       0KiB time=00:00:00.23 bitrate=   1.5kbits/s speed=0.0111x elapsed=0:00:20.98    \nframe=   10 fps=0.5 q=39.4 size=       0KiB time=00:00:00.26 bitrate=   1.3kbits/s speed=0.0124x elapsed=0:00:21.52    \nframe=   11 fps=0.5 q=34.8 size=       0KiB time=00:00:00.30 bitrate=   1.2kbits/s speed=0.0136x elapsed=0:00:22.04    \nframe=   12 fps=0.5 q=38.1 size=       0KiB time=00:00:00.33 bitrate=   1.1kbits/s speed=0.0148x elapsed=0:00:22.56    \nframe=   12 fps=0.5 q=38.1 size=       0KiB time=00:00:00.33 bitrate=   1.1kbits/s speed=0.0144x elapsed=0:00:23.10    \nframe=   12 fps=0.5 q=38.1 size=       0KiB time=00:00:00.33 bitrate=   1.1kbits/s speed=0.0141x elapsed=0:00:23.65    \nframe=   13 fps=0.5 q=39.2 size=       0KiB time=00:00:00.36 bitrate=   1.0kbits/s speed=0.0152x elapsed=0:00:24.18    \nframe=   13 fps=0.5 q=39.2 size=       0KiB time=00:00:00.36 bitrate=   1.0kbits/s speed=0.0148x elapsed=0:00:24.72    \nframe=   14 fps=0.6 q=38.4 size=       0KiB time=00:00:00.40 bitrate=   0.9kbits/s speed=0.0158x elapsed=0:00:25.26    \nframe=   14 fps=0.5 q=38.4 size=       0KiB time=00:00:00.40 bitrate=   0.9kbits/s speed=0.0155x elapsed=0:00:25.78    \nframe=   15 fps=0.6 q=34.4 size=       0KiB time=00:00:00.43 bitrate=   0.8kbits/s speed=0.0165x elapsed=0:00:26.31    \nframe=   15 fps=0.6 q=34.4 size=       0KiB time=00:00:00.43 bitrate=   0.8kbits/s speed=0.0162x elapsed=0:00:26.82    \nframe=   15 fps=0.5 q=34.4 size=       0KiB time=00:00:00.43 bitrate=   0.8kbits/s speed=0.0158x elapsed=0:00:27.43    \nframe=   15 fps=0.5 q=34.4 size=       0KiB time=00:00:00.43 bitrate=   0.8kbits/s speed=0.0155x elapsed=0:00:27.99    \nframe=   15 fps=0.5 q=34.4 size=       0KiB time=00:00:00.43 bitrate=   0.8kbits/s speed=0.0152x elapsed=0:00:28.51    \nframe=   16 fps=0.6 q=36.8 size=       0KiB time=00:00:00.46 bitrate=   0.8kbits/s speed=0.016x elapsed=0:00:29.08    \nframe=   17 fps=0.6 q=38.4 size=       0KiB time=00:00:00.50 bitrate=   0.7kbits/s speed=0.0169x elapsed=0:00:29.60    \nframe=   17 fps=0.6 q=38.4 size=       0KiB time=00:00:00.50 bitrate=   0.7kbits/s speed=0.0166x elapsed=0:00:30.13    \nframe=   17 fps=0.6 q=38.4 size=       0KiB time=00:00:00.50 bitrate=   0.7kbits/s speed=0.0163x elapsed=0:00:30.65    \nframe=   17 fps=0.5 q=38.4 size=       0KiB time=00:00:00.50 bitrate=   0.7kbits/s speed=0.016x elapsed=0:00:31.18    \nframe=   18 fps=0.6 q=37.6 size=       0KiB time=00:00:00.53 bitrate=   0.7kbits/s speed=0.0168x elapsed=0:00:31.70    \nframe=   18 fps=0.6 q=37.6 size=       0KiB time=00:00:00.53 bitrate=   0.7kbits/s speed=0.0165x elapsed=0:00:32.23    \nframe=   18 fps=0.5 q=37.6 size=       0KiB time=00:00:00.53 bitrate=   0.7kbits/s speed=0.0163x elapsed=0:00:32.76    \nframe=   18 fps=0.5 q=37.6 size=       0KiB time=00:00:00.53 bitrate=   0.7kbits/s speed=0.016x elapsed=0:00:33.26    \nframe=   19 fps=0.6 q=33.7 size=       0KiB time=00:00:00.56 bitrate=   0.6kbits/s speed=0.0168x elapsed=0:00:33.78    \nframe=   19 fps=0.6 q=33.7 size=       0KiB time=00:00:00.56 bitrate=   0.6kbits/s speed=0.0165x elapsed=0:00:34.30    \nframe=   19 fps=0.5 q=33.7 size=       0KiB time=00:00:00.56 bitrate=   0.6kbits/s speed=0.0163x elapsed=0:00:34.81    \nframe=   19 fps=0.5 q=33.7 size=       0KiB time=00:00:00.56 bitrate=   0.6kbits/s speed=0.016x elapsed=0:00:35.34    \nframe=   19 fps=0.5 q=33.7 size=       0KiB time=00:00:00.56 bitrate=   0.6kbits/s speed=0.0158x elapsed=0:00:35.89    \nframe=   19 fps=0.5 q=33.7 size=       0KiB time=00:00:00.56 bitrate=   0.6kbits/s speed=0.0156x elapsed=0:00:36.42    \nframe=   20 fps=0.5 q=36.0 size=       0KiB time=00:00:00.60 bitrate=   0.6kbits/s speed=0.0162x elapsed=0:00:36.94    \nframe=   20 fps=0.5 q=36.0 size=       0KiB time=00:00:00.60 bitrate=   0.6kbits/s speed=0.016x elapsed=0:00:37.46    \nframe=   20 fps=0.5 q=36.0 size=       0KiB time=00:00:00.60 bitrate=   0.6kbits/s speed=0.0158x elapsed=0:00:37.97    \nframe=   21 fps=0.5 q=37.3 size=       0KiB time=00:00:00.63 bitrate=   0.6kbits/s speed=0.0164x elapsed=0:00:38.51    \nframe=   21 fps=0.5 q=37.3 size=       0KiB time=00:00:00.63 bitrate=   0.6kbits/s speed=0.0162x elapsed=0:00:39.04    \nframe=   21 fps=0.5 q=37.3 size=       0KiB time=00:00:00.63 bitrate=   0.6kbits/s speed=0.016x elapsed=0:00:39.56    \nframe=   21 fps=0.5 q=37.3 size=       0KiB time=00:00:00.63 bitrate=   0.6kbits/s speed=0.0158x elapsed=0:00:40.08    \nframe=   21 fps=0.5 q=37.3 size=       0KiB time=00:00:00.63 bitrate=   0.6kbits/s speed=0.0156x elapsed=0:00:40.62    \nframe=   22 fps=0.5 q=33.6 size=       0KiB time=00:00:00.66 bitrate=   0.5kbits/s speed=0.0162x elapsed=0:00:41.14    \nframe=   22 fps=0.5 q=33.6 size=       0KiB time=00:00:00.66 bitrate=   0.5kbits/s speed=0.016x elapsed=0:00:41.66    \nframe=   22 fps=0.5 q=33.6 size=       0KiB time=00:00:00.66 bitrate=   0.5kbits/s speed=0.0158x elapsed=0:00:42.19    \nframe=   22 fps=0.5 q=33.6 size=       0KiB time=00:00:00.66 bitrate=   0.5kbits/s speed=0.0156x elapsed=0:00:42.71    \nframe=   23 fps=0.5 q=37.2 size=       0KiB time=00:00:00.70 bitrate=   0.5kbits/s speed=0.0162x elapsed=0:00:43.21    \nframe=   23 fps=0.5 q=37.2 size=       0KiB time=00:00:00.70 bitrate=   0.5kbits/s speed=0.016x elapsed=0:00:43.73    \nframe=   23 fps=0.5 q=37.2 size=       0KiB time=00:00:00.70 bitrate=   0.5kbits/s speed=0.0158x elapsed=0:00:44.26    \nframe=   24 fps=0.5 q=33.9 size=       0KiB time=00:00:00.73 bitrate=   0.5kbits/s speed=0.0164x elapsed=0:00:44.79    \nframe=   24 fps=0.5 q=33.9 size=       0KiB time=00:00:00.73 bitrate=   0.5kbits/s speed=0.0162x elapsed=0:00:45.32    \nframe=   24 fps=0.5 q=33.9 size=       0KiB time=00:00:00.73 bitrate=   0.5kbits/s speed=0.016x elapsed=0:00:45.85    \nframe=   24 fps=0.5 q=33.9 size=       0KiB time=00:00:00.73 bitrate=   0.5kbits/s speed=0.0158x elapsed=0:00:46.36    \nframe=   24 fps=0.5 q=33.9 size=       0KiB time=00:00:00.73 bitrate=   0.5kbits/s speed=0.0156x elapsed=0:00:46.88    \nframe=   25 fps=0.5 q=34.9 size=       0KiB time=00:00:00.76 bitrate=   0.5kbits/s speed=0.0162x elapsed=0:00:47.40    \nframe=   26 fps=0.5 q=37.0 size=       0KiB time=00:00:00.80 bitrate=   0.4kbits/s speed=0.0167x elapsed=0:00:47.92    \nframe=   26 fps=0.5 q=37.0 size=       0KiB time=00:00:00.80 bitrate=   0.4kbits/s speed=0.0165x elapsed=0:00:48.44    \nframe=   27 fps=0.6 q=34.1 size=       0KiB time=00:00:00.83 bitrate=   0.4kbits/s speed=0.017x elapsed=0:00:48.95    \nframe=   27 fps=0.5 q=34.1 size=       0KiB time=00:00:00.83 bitrate=   0.4kbits/s speed=0.0168x elapsed=0:00:49.47    \nframe=   27 fps=0.5 q=34.1 size=       0KiB time=00:00:00.83 bitrate=   0.4kbits/s speed=0.0167x elapsed=0:00:50.00    \nframe=   27 fps=0.5 q=34.1 size=       0KiB time=00:00:00.83 bitrate=   0.4kbits/s speed=0.0165x elapsed=0:00:50.51    \nframe=   27 fps=0.5 q=34.1 size=       0KiB time=00:00:00.83 bitrate=   0.4kbits/s speed=0.0163x elapsed=0:00:51.07    \nframe=   27 fps=0.5 q=34.1 size=       0KiB time=00:00:00.83 bitrate=   0.4kbits/s speed=0.0161x elapsed=0:00:51.64    \nframe=   27 fps=0.5 q=34.1 size=       0KiB time=00:00:00.83 bitrate=   0.4kbits/s speed=0.016x elapsed=0:00:52.18    \nframe=   28 fps=0.5 q=36.8 size=       0KiB time=00:00:00.86 bitrate=   0.4kbits/s speed=0.0164x elapsed=0:00:52.70    \nframe=   28 fps=0.5 q=36.8 size=       0KiB time=00:00:00.86 bitrate=   0.4kbits/s speed=0.0163x elapsed=0:00:53.22    \nframe=   28 fps=0.5 q=36.8 size=       0KiB time=00:00:00.86 bitrate=   0.4kbits/s speed=0.0161x elapsed=0:00:53.73    \nframe=   28 fps=0.5 q=36.8 size=       0KiB time=00:00:00.86 bitrate=   0.4kbits/s speed=0.016x elapsed=0:00:54.26    \nframe=   29 fps=0.5 q=33.7 size=       0KiB time=00:00:00.90 bitrate=   0.4kbits/s speed=0.0164x elapsed=0:00:54.78    \nframe=   30 fps=0.5 q=36.7 size=       0KiB time=00:00:00.93 bitrate=   0.4kbits/s speed=0.0169x elapsed=0:00:55.29    \nframe=   30 fps=0.5 q=36.7 size=       0KiB time=00:00:00.93 bitrate=   0.4kbits/s speed=0.0167x elapsed=0:00:55.81    \nframe=   31 fps=0.6 q=33.3 size=       0KiB time=00:00:00.96 bitrate=   0.4kbits/s speed=0.0172x elapsed=0:00:56.34    \nframe=   31 fps=0.5 q=33.3 size=       0KiB time=00:00:00.96 bitrate=   0.4kbits/s speed=0.017x elapsed=0:00:56.86    \nframe=   32 fps=0.6 q=35.4 size=       0KiB time=00:00:01.00 bitrate=   0.4kbits/s speed=0.0174x elapsed=0:00:57.38    \nframe=   32 fps=0.6 q=35.4 size=       0KiB time=00:00:01.00 bitrate=   0.4kbits/s speed=0.0173x elapsed=0:00:57.89    \nframe=   33 fps=0.6 q=36.7 size=       0KiB time=00:00:01.03 bitrate=   0.3kbits/s speed=0.0177x elapsed=0:00:58.41    \nframe=   34 fps=0.6 q=33.2 size=       0KiB time=00:00:01.06 bitrate=   0.3kbits/s speed=0.0181x elapsed=0:00:58.93    \nframe=   34 fps=0.6 q=33.2 size=       0KiB time=00:00:01.06 bitrate=   0.3kbits/s speed=0.0179x elapsed=0:00:59.47    \nframe=   34 fps=0.6 q=33.2 size=       0KiB time=00:00:01.06 bitrate=   0.3kbits/s speed=0.0178x elapsed=0:01:00.02    \nframe=   34 fps=0.6 q=33.2 size=       0KiB time=00:00:01.06 bitrate=   0.3kbits/s speed=0.0176x elapsed=0:01:00.55    \nframe=   34 fps=0.6 q=33.2 size=       0KiB time=00:00:01.06 bitrate=   0.3kbits/s speed=0.0175x elapsed=0:01:01.07    \nframe=   35 fps=0.6 q=33.4 size=       0KiB time=00:00:01.10 bitrate=   0.3kbits/s speed=0.0179x elapsed=0:01:01.59    \nframe=   35 fps=0.6 q=33.4 size=       0KiB time=00:00:01.10 bitrate=   0.3kbits/s speed=0.0177x elapsed=0:01:02.13    \nframe=   35 fps=0.6 q=33.4 size=       0KiB time=00:00:01.10 bitrate=   0.3kbits/s speed=0.0176x elapsed=0:01:02.66    \nframe=   36 fps=0.6 q=36.3 size=       0KiB time=00:00:01.13 bitrate=   0.3kbits/s speed=0.0179x elapsed=0:01:03.17    \nframe=   36 fps=0.6 q=36.3 size=       0KiB time=00:00:01.13 bitrate=   0.3kbits/s speed=0.0178x elapsed=0:01:03.70    \nframe=   36 fps=0.6 q=36.3 size=       0KiB time=00:00:01.13 bitrate=   0.3kbits/s speed=0.0176x elapsed=0:01:04.22    \nframe=   37 fps=0.6 q=33.0 size=       0KiB time=00:00:01.16 bitrate=   0.3kbits/s speed=0.018x elapsed=0:01:04.75    \nframe=   37 fps=0.6 q=33.0 size=       0KiB time=00:00:01.16 bitrate=   0.3kbits/s speed=0.0179x elapsed=0:01:05.28    \nframe=   37 fps=0.6 q=33.0 size=       0KiB time=00:00:01.16 bitrate=   0.3kbits/s speed=0.0177x elapsed=0:01:05.80    \nframe=   38 fps=0.6 q=34.6 size=     256KiB time=00:00:01.20 bitrate=1747.9kbits/s speed=0.0181x elapsed=0:01:06.35    \nframe=   38 fps=0.6 q=34.6 size=     256KiB time=00:00:01.20 bitrate=1747.9kbits/s speed=0.0179x elapsed=0:01:06.88    \nframe=   38 fps=0.6 q=34.6 size=     256KiB time=00:00:01.20 bitrate=1747.9kbits/s speed=0.0178x elapsed=0:01:07.42    \nframe=   38 fps=0.6 q=34.6 size=     256KiB time=00:00:01.20 bitrate=1747.9kbits/s speed=0.0177x elapsed=0:01:07.96    \nframe=   38 fps=0.6 q=34.6 size=     256KiB time=00:00:01.20 bitrate=1747.9kbits/s speed=0.0175x elapsed=0:01:08.48    \nframe=   38 fps=0.6 q=34.6 size=     256KiB time=00:00:01.20 bitrate=1747.9kbits/s speed=0.0174x elapsed=0:01:09.00    \nframe=   38 fps=0.5 q=34.6 size=     256KiB time=00:00:01.20 bitrate=1747.9kbits/s speed=0.0173x elapsed=0:01:09.54    \nframe=   39 fps=0.6 q=36.2 size=     256KiB time=00:00:01.23 bitrate=1700.7kbits/s speed=0.0176x elapsed=0:01:10.09    \nframe=   39 fps=0.6 q=36.2 size=     256KiB time=00:00:01.23 bitrate=1700.7kbits/s speed=0.0175x elapsed=0:01:10.64    \nframe=   39 fps=0.5 q=36.2 size=     256KiB time=00:00:01.23 bitrate=1700.7kbits/s speed=0.0173x elapsed=0:01:11.17    \nframe=   40 fps=0.6 q=36.0 size=     256KiB time=00:00:01.26 bitrate=1655.9kbits/s speed=0.0177x elapsed=0:01:11.71    \nframe=   40 fps=0.6 q=36.0 size=     256KiB time=00:00:01.26 bitrate=1655.9kbits/s speed=0.0175x elapsed=0:01:12.22    \nframe=   41 fps=0.6 q=32.8 size=     256KiB time=00:00:01.30 bitrate=1613.5kbits/s speed=0.0179x elapsed=0:01:12.74    \nframe=   41 fps=0.6 q=32.8 size=     256KiB time=00:00:01.30 bitrate=1613.5kbits/s speed=0.0177x elapsed=0:01:13.27    \nframe=   41 fps=0.6 q=32.8 size=     256KiB time=00:00:01.30 bitrate=1613.5kbits/s speed=0.0176x elapsed=0:01:13.80    \nframe=   41 fps=0.6 q=32.8 size=     256KiB time=00:00:01.30 bitrate=1613.5kbits/s speed=0.0175x elapsed=0:01:14.33    \nframe=   41 fps=0.5 q=32.8 size=     256KiB time=00:00:01.30 bitrate=1613.5kbits/s speed=0.0174x elapsed=0:01:14.84    \nframe=   42 fps=0.6 q=34.2 size=     256KiB time=00:00:01.33 bitrate=1573.1kbits/s speed=0.0177x elapsed=0:01:15.36    \nframe=   42 fps=0.6 q=34.2 size=     256KiB time=00:00:01.33 bitrate=1573.1kbits/s speed=0.0176x elapsed=0:01:15.88    \nframe=   42 fps=0.5 q=34.2 size=     256KiB time=00:00:01.33 bitrate=1573.1kbits/s speed=0.0175x elapsed=0:01:16.40    \nframe=   42 fps=0.5 q=34.2 size=     256KiB time=00:00:01.33 bitrate=1573.1kbits/s speed=0.0173x elapsed=0:01:16.93    \nframe=   42 fps=0.5 q=34.2 size=     256KiB time=00:00:01.33 bitrate=1573.1kbits/s speed=0.0172x elapsed=0:01:17.46    \nframe=   42 fps=0.5 q=34.2 size=     256KiB time=00:00:01.33 bitrate=1573.1kbits/s speed=0.0171x elapsed=0:01:18.02    \nframe=   43 fps=0.5 q=35.6 size=     256KiB time=00:00:01.36 bitrate=1534.8kbits/s speed=0.0174x elapsed=0:01:18.54    \nframe=   43 fps=0.5 q=35.6 size=     256KiB time=00:00:01.36 bitrate=1534.8kbits/s speed=0.0173x elapsed=0:01:19.06    \nframe=   43 fps=0.5 q=35.6 size=     256KiB time=00:00:01.36 bitrate=1534.8kbits/s speed=0.0172x elapsed=0:01:19.58    \nframe=   44 fps=0.5 q=36.0 size=     256KiB time=00:00:01.40 bitrate=1498.2kbits/s speed=0.0175x elapsed=0:01:20.09    \nframe=   44 fps=0.5 q=36.0 size=     256KiB time=00:00:01.40 bitrate=1498.2kbits/s speed=0.0174x elapsed=0:01:20.63    \nframe=   44 fps=0.5 q=36.0 size=     256KiB time=00:00:01.40 bitrate=1498.2kbits/s speed=0.0173x elapsed=0:01:21.15    \nframe=   45 fps=0.6 q=32.6 size=     256KiB time=00:00:01.43 bitrate=1463.4kbits/s speed=0.0175x elapsed=0:01:21.68    \nframe=   45 fps=0.5 q=32.6 size=     256KiB time=00:00:01.43 bitrate=1463.4kbits/s speed=0.0174x elapsed=0:01:22.24    \nframe=   45 fps=0.5 q=32.6 size=     256KiB time=00:00:01.43 bitrate=1463.4kbits/s speed=0.0173x elapsed=0:01:22.76    \nframe=   45 fps=0.5 q=32.6 size=     256KiB time=00:00:01.43 bitrate=1463.4kbits/s speed=0.0172x elapsed=0:01:23.28    \nframe=   45 fps=0.5 q=32.6 size=     256KiB time=00:00:01.43 bitrate=1463.4kbits/s speed=0.0171x elapsed=0:01:23.80    \nframe=   45 fps=0.5 q=32.6 size=     256KiB time=00:00:01.43 bitrate=1463.4kbits/s speed=0.017x elapsed=0:01:24.31    \nframe=   46 fps=0.5 q=33.9 size=     256KiB time=00:00:01.46 bitrate=1430.1kbits/s speed=0.0173x elapsed=0:01:24.83    \nframe=   46 fps=0.5 q=33.9 size=     256KiB time=00:00:01.46 bitrate=1430.1kbits/s speed=0.0172x elapsed=0:01:25.36    \nframe=   46 fps=0.5 q=33.9 size=     256KiB time=00:00:01.46 bitrate=1430.1kbits/s speed=0.0171x elapsed=0:01:25.88    \nframe=   46 fps=0.5 q=33.9 size=     256KiB time=00:00:01.46 bitrate=1430.1kbits/s speed=0.017x elapsed=0:01:26.40    \nframe=   46 fps=0.5 q=33.9 size=     256KiB time=00:00:01.46 bitrate=1430.1kbits/s speed=0.0169x elapsed=0:01:26.94    \nframe=   47 fps=0.5 q=35.8 size=     256KiB time=00:00:01.50 bitrate=1398.3kbits/s speed=0.0171x elapsed=0:01:27.47    \nframe=   47 fps=0.5 q=35.8 size=     256KiB time=00:00:01.50 bitrate=1398.3kbits/s speed=0.017x elapsed=0:01:27.99    \nframe=   48 fps=0.5 q=32.9 size=     256KiB time=00:00:01.53 bitrate=1367.9kbits/s speed=0.0173x elapsed=0:01:28.59    \nframe=   48 fps=0.5 q=32.9 size=     256KiB time=00:00:01.53 bitrate=1367.9kbits/s speed=0.0172x elapsed=0:01:29.13    \nframe=   48 fps=0.5 q=32.9 size=     256KiB time=00:00:01.53 bitrate=1367.9kbits/s speed=0.0171x elapsed=0:01:29.66    \nframe=   48 fps=0.5 q=32.9 size=     256KiB time=00:00:01.53 bitrate=1367.9kbits/s speed=0.017x elapsed=0:01:30.22    \nframe=   48 fps=0.5 q=32.9 size=     256KiB time=00:00:01.53 bitrate=1367.9kbits/s speed=0.0169x elapsed=0:01:30.81    \nframe=   48 fps=0.5 q=32.9 size=     256KiB time=00:00:01.53 bitrate=1367.9kbits/s speed=0.0168x elapsed=0:01:31.40    \nframe=   48 fps=0.5 q=32.9 size=     256KiB time=00:00:01.53 bitrate=1367.9kbits/s speed=0.0167x elapsed=0:01:31.93    \nframe=   48 fps=0.5 q=32.9 size=     256KiB time=00:00:01.53 bitrate=1367.9kbits/s speed=0.0166x elapsed=0:01:32.49    \nframe=   48 fps=0.5 q=32.9 size=     256KiB time=00:00:01.53 bitrate=1367.9kbits/s speed=0.0165x elapsed=0:01:33.01    \nframe=   48 fps=0.5 q=32.9 size=     256KiB time=00:00:01.53 bitrate=1367.9kbits/s speed=0.0164x elapsed=0:01:33.54    \nframe=   48 fps=0.5 q=32.9 size=     256KiB time=00:00:01.53 bitrate=1367.9kbits/s speed=0.0163x elapsed=0:01:34.05    \nframe=   49 fps=0.5 q=33.3 size=     256KiB time=00:00:01.56 bitrate=1338.8kbits/s speed=0.0166x elapsed=0:01:34.59    \nframe=   49 fps=0.5 q=33.3 size=     256KiB time=00:00:01.56 bitrate=1338.8kbits/s speed=0.0165x elapsed=0:01:35.11    \nframe=   49 fps=0.5 q=33.3 size=     256KiB time=00:00:01.56 bitrate=1338.8kbits/s speed=0.0164x elapsed=0:01:35.63    \nframe=   50 fps=0.5 q=36.6 size=     256KiB time=00:00:01.60 bitrate=1310.9kbits/s speed=0.0166x elapsed=0:01:36.15    \nframe=   50 fps=0.5 q=36.6 size=     256KiB time=00:00:01.60 bitrate=1310.9kbits/s speed=0.0166x elapsed=0:01:36.66    \nframe=   51 fps=0.5 q=32.9 size=     256KiB time=00:00:01.63 bitrate=1284.2kbits/s speed=0.0168x elapsed=0:01:37.18    \nframe=   52 fps=0.5 q=34.5 size=     256KiB time=00:00:01.66 bitrate=1258.5kbits/s speed=0.0171x elapsed=0:01:37.71    \nframe=   52 fps=0.5 q=34.5 size=     256KiB time=00:00:01.66 bitrate=1258.5kbits/s speed=0.017x elapsed=0:01:38.24    \nframe=   52 fps=0.5 q=34.5 size=     256KiB time=00:00:01.66 bitrate=1258.5kbits/s speed=0.0169x elapsed=0:01:38.82    \nframe=   52 fps=0.5 q=34.5 size=     256KiB time=00:00:01.66 bitrate=1258.5kbits/s speed=0.0168x elapsed=0:01:39.35    \nframe=   52 fps=0.5 q=34.5 size=     256KiB time=00:00:01.66 bitrate=1258.5kbits/s speed=0.0167x elapsed=0:01:39.89    \nframe=   53 fps=0.5 q=36.4 size=     256KiB time=00:00:01.70 bitrate=1233.8kbits/s speed=0.0169x elapsed=0:01:40.43    \nframe=   53 fps=0.5 q=36.4 size=     256KiB time=00:00:01.70 bitrate=1233.8kbits/s speed=0.0168x elapsed=0:01:40.96    \nframe=   53 fps=0.5 q=36.4 size=     256KiB time=00:00:01.70 bitrate=1233.8kbits/s speed=0.0167x elapsed=0:01:41.50    \nframe=   53 fps=0.5 q=36.4 size=     256KiB time=00:00:01.70 bitrate=1233.8kbits/s speed=0.0167x elapsed=0:01:42.07    \nframe=   54 fps=0.5 q=36.2 size=     256KiB time=00:00:01.73 bitrate=1210.1kbits/s speed=0.0169x elapsed=0:01:42.59    \nframe=   54 fps=0.5 q=36.2 size=     256KiB time=00:00:01.73 bitrate=1210.1kbits/s speed=0.0168x elapsed=0:01:43.11    \nframe=   55 fps=0.5 q=32.7 size=     256KiB time=00:00:01.76 bitrate=1187.3kbits/s speed=0.017x elapsed=0:01:43.62    \nframe=   55 fps=0.5 q=32.7 size=     256KiB time=00:00:01.76 bitrate=1187.3kbits/s speed=0.017x elapsed=0:01:44.15    \nframe=   55 fps=0.5 q=32.7 size=     256KiB time=00:00:01.76 bitrate=1187.3kbits/s speed=0.0169x elapsed=0:01:44.67    \nframe=   55 fps=0.5 q=32.7 size=     256KiB time=00:00:01.76 bitrate=1187.3kbits/s speed=0.0168x elapsed=0:01:45.20    \nframe=   55 fps=0.5 q=32.7 size=     256KiB time=00:00:01.76 bitrate=1187.3kbits/s speed=0.0167x elapsed=0:01:45.75    \nframe=   55 fps=0.5 q=32.7 size=     256KiB time=00:00:01.76 bitrate=1187.3kbits/s speed=0.0166x elapsed=0:01:46.29    \nframe=   56 fps=0.5 q=34.3 size=     256KiB time=00:00:01.80 bitrate=1165.3kbits/s speed=0.0168x elapsed=0:01:46.84    \nframe=   56 fps=0.5 q=34.3 size=     256KiB time=00:00:01.80 bitrate=1165.3kbits/s speed=0.0168x elapsed=0:01:47.39    \nframe=   56 fps=0.5 q=34.3 size=     256KiB time=00:00:01.80 bitrate=1165.3kbits/s speed=0.0167x elapsed=0:01:48.00    \nframe=   56 fps=0.5 q=34.3 size=     256KiB time=00:00:01.80 bitrate=1165.3kbits/s speed=0.0166x elapsed=0:01:48.58    \nframe=   56 fps=0.5 q=34.3 size=     256KiB time=00:00:01.80 bitrate=1165.3kbits/s speed=0.0165x elapsed=0:01:49.19    \nframe=   56 fps=0.5 q=34.3 size=     256KiB time=00:00:01.80 bitrate=1165.3kbits/s speed=0.0164x elapsed=0:01:49.74    \nframe=   56 fps=0.5 q=34.3 size=     256KiB time=00:00:01.80 bitrate=1165.3kbits/s speed=0.0163x elapsed=0:01:50.30    \nframe=   56 fps=0.5 q=34.3 size=     256KiB time=00:00:01.80 bitrate=1165.3kbits/s speed=0.0162x elapsed=0:01:50.81    \nframe=   57 fps=0.5 q=35.9 size=     256KiB time=00:00:01.83 bitrate=1144.1kbits/s speed=0.0165x elapsed=0:01:51.37    \nframe=   57 fps=0.5 q=35.9 size=     256KiB time=00:00:01.83 bitrate=1144.1kbits/s speed=0.0164x elapsed=0:01:51.91    \nframe=   57 fps=0.5 q=35.9 size=     256KiB time=00:00:01.83 bitrate=1144.1kbits/s speed=0.0163x elapsed=0:01:52.47    \nframe=   57 fps=0.5 q=35.9 size=     256KiB time=00:00:01.83 bitrate=1144.1kbits/s speed=0.0162x elapsed=0:01:53.03    \nframe=   57 fps=0.5 q=35.9 size=     256KiB time=00:00:01.83 bitrate=1144.1kbits/s speed=0.0161x elapsed=0:01:53.55    \nframe=   58 fps=0.5 q=32.4 size=     256KiB time=00:00:01.86 bitrate=1123.7kbits/s speed=0.0164x elapsed=0:01:54.07    \nframe=   58 fps=0.5 q=32.4 size=     256KiB time=00:00:01.86 bitrate=1123.7kbits/s speed=0.0163x elapsed=0:01:54.61    \nframe=   58 fps=0.5 q=32.4 size=     256KiB time=00:00:01.86 bitrate=1123.7kbits/s speed=0.0162x elapsed=0:01:55.15    \nframe=   58 fps=0.5 q=32.4 size=     256KiB time=00:00:01.86 bitrate=1123.7kbits/s speed=0.0161x elapsed=0:01:55.69    \nframe=   58 fps=0.5 q=32.4 size=     256KiB time=00:00:01.86 bitrate=1123.7kbits/s speed=0.0161x elapsed=0:01:56.25    \nframe=   58 fps=0.5 q=32.4 size=     256KiB time=00:00:01.86 bitrate=1123.7kbits/s speed=0.016x elapsed=0:01:56.77    \nframe=   58 fps=0.5 q=32.4 size=     256KiB time=00:00:01.86 bitrate=1123.7kbits/s speed=0.0159x elapsed=0:01:57.35    \nframe=   59 fps=0.5 q=35.5 size=     256KiB time=00:00:01.90 bitrate=1103.9kbits/s speed=0.0161x elapsed=0:01:57.91    \nframe=   59 fps=0.5 q=35.5 size=     256KiB time=00:00:01.90 bitrate=1103.9kbits/s speed=0.016x elapsed=0:01:58.47    \nframe=   60 fps=0.5 q=36.3 size=     256KiB time=00:00:01.93 bitrate=1084.9kbits/s speed=0.0162x elapsed=0:01:59.00    \nframe=   60 fps=0.5 q=36.3 size=     256KiB time=00:00:01.93 bitrate=1084.9kbits/s speed=0.0162x elapsed=0:01:59.56    \nframe=   61 fps=0.5 q=36.0 size=     256KiB time=00:00:01.96 bitrate=1066.5kbits/s speed=0.0164x elapsed=0:02:00.09    \nframe=   61 fps=0.5 q=36.0 size=     256KiB time=00:00:01.96 bitrate=1066.5kbits/s speed=0.0163x elapsed=0:02:00.64    \nframe=   61 fps=0.5 q=36.0 size=     256KiB time=00:00:01.96 bitrate=1066.5kbits/s speed=0.0162x elapsed=0:02:01.18    \nframe=   61 fps=0.5 q=36.0 size=     256KiB time=00:00:01.96 bitrate=1066.5kbits/s speed=0.0162x elapsed=0:02:01.71    \nframe=   61 fps=0.5 q=36.0 size=     256KiB time=00:00:01.96 bitrate=1066.5kbits/s speed=0.0161x elapsed=0:02:02.29    \nframe=   61 fps=0.5 q=36.0 size=     256KiB time=00:00:01.96 bitrate=1066.5kbits/s speed=0.016x elapsed=0:02:02.90    \nframe=   61 fps=0.5 q=36.0 size=     256KiB time=00:00:01.96 bitrate=1066.5kbits/s speed=0.0159x elapsed=0:02:03.50    \nframe=   61 fps=0.5 q=36.0 size=     256KiB time=00:00:01.96 bitrate=1066.5kbits/s speed=0.0158x elapsed=0:02:04.10    \nframe=   62 fps=0.5 q=36.8 size=     256KiB time=00:00:02.00 bitrate=1048.8kbits/s speed=0.016x elapsed=0:02:04.65    \nframe=   62 fps=0.5 q=36.8 size=     256KiB time=00:00:02.00 bitrate=1048.8kbits/s speed=0.016x elapsed=0:02:05.17    \nframe=   62 fps=0.5 q=36.8 size=     256KiB time=00:00:02.00 bitrate=1048.8kbits/s speed=0.0159x elapsed=0:02:05.69    \nframe=   62 fps=0.5 q=36.8 size=     256KiB time=00:00:02.00 bitrate=1048.8kbits/s speed=0.0158x elapsed=0:02:06.22    \nframe=   62 fps=0.5 q=36.8 size=     256KiB time=00:00:02.00 bitrate=1048.8kbits/s speed=0.0158x elapsed=0:02:06.75    \nframe=   62 fps=0.5 q=36.8 size=     256KiB time=00:00:02.00 bitrate=1048.8kbits/s speed=0.0157x elapsed=0:02:07.26    \nframe=   63 fps=0.5 q=32.4 size=     256KiB time=00:00:02.03 bitrate=1031.6kbits/s speed=0.0159x elapsed=0:02:07.78    \nframe=   63 fps=0.5 q=32.4 size=     256KiB time=00:00:02.03 bitrate=1031.6kbits/s speed=0.0158x elapsed=0:02:08.31    \nframe=   63 fps=0.5 q=32.4 size=     256KiB time=00:00:02.03 bitrate=1031.6kbits/s speed=0.0158x elapsed=0:02:08.85    \nframe=   64 fps=0.5 q=36.4 size=     256KiB time=00:00:02.06 bitrate=1014.9kbits/s speed=0.016x elapsed=0:02:09.38    \nframe=   64 fps=0.5 q=36.4 size=     256KiB time=00:00:02.06 bitrate=1014.9kbits/s speed=0.0159x elapsed=0:02:09.89    \nframe=   65 fps=0.5 q=32.9 size=     256KiB time=00:00:02.10 bitrate= 998.8kbits/s speed=0.0161x elapsed=0:02:10.41    \nframe=   66 fps=0.5 q=35.2 size=     256KiB time=00:00:02.13 bitrate= 983.2kbits/s speed=0.0163x elapsed=0:02:10.93    \nframe=   67 fps=0.5 q=36.5 size=     256KiB time=00:00:02.16 bitrate= 968.1kbits/s speed=0.0165x elapsed=0:02:11.45    \nframe=   67 fps=0.5 q=36.5 size=     256KiB time=00:00:02.16 bitrate= 968.1kbits/s speed=0.0164x elapsed=0:02:11.97    \nframe=   68 fps=0.5 q=36.8 size=     256KiB time=00:00:02.20 bitrate= 953.4kbits/s speed=0.0166x elapsed=0:02:12.48    \nframe=   68 fps=0.5 q=36.8 size=     256KiB time=00:00:02.20 bitrate= 953.4kbits/s speed=0.0165x elapsed=0:02:13.01    \nframe=   69 fps=0.5 q=33.0 size=     512KiB time=00:00:02.23 bitrate=1878.2kbits/s speed=0.0167x elapsed=0:02:13.55    \nframe=   69 fps=0.5 q=33.0 size=     512KiB time=00:00:02.23 bitrate=1878.2kbits/s speed=0.0167x elapsed=0:02:14.06    \nframe=   70 fps=0.5 q=34.6 size=     512KiB time=00:00:02.26 bitrate=1850.6kbits/s speed=0.0168x elapsed=0:02:14.61    \nframe=   70 fps=0.5 q=34.6 size=     512KiB time=00:00:02.26 bitrate=1850.6kbits/s speed=0.0168x elapsed=0:02:15.14    \nframe=   70 fps=0.5 q=34.6 size=     512KiB time=00:00:02.26 bitrate=1850.6kbits/s speed=0.0167x elapsed=0:02:15.66    \nframe=   71 fps=0.5 q=36.2 size=     512KiB time=00:00:02.30 bitrate=1823.8kbits/s speed=0.0169x elapsed=0:02:16.17    \nframe=   71 fps=0.5 q=36.2 size=     512KiB time=00:00:02.30 bitrate=1823.8kbits/s speed=0.0168x elapsed=0:02:16.68    \nframe=   72 fps=0.5 q=36.2 size=     512KiB time=00:00:02.33 bitrate=1797.7kbits/s speed=0.017x elapsed=0:02:17.20    \nframe=   72 fps=0.5 q=36.2 size=     512KiB time=00:00:02.33 bitrate=1797.7kbits/s speed=0.0169x elapsed=0:02:17.72    \nframe=   73 fps=0.5 q=31.9 size=     512KiB time=00:00:02.36 bitrate=1772.4kbits/s speed=0.0171x elapsed=0:02:18.25    \nframe=   73 fps=0.5 q=31.9 size=     512KiB time=00:00:02.36 bitrate=1772.4kbits/s speed=0.0171x elapsed=0:02:18.80    \nframe=   74 fps=0.5 q=34.3 size=     512KiB time=00:00:02.40 bitrate=1747.8kbits/s speed=0.0172x elapsed=0:02:19.33    \nframe=   74 fps=0.5 q=34.3 size=     512KiB time=00:00:02.40 bitrate=1747.8kbits/s speed=0.0172x elapsed=0:02:19.86    \nframe=   74 fps=0.5 q=34.3 size=     512KiB time=00:00:02.40 bitrate=1747.8kbits/s speed=0.0171x elapsed=0:02:20.39    \nframe=   75 fps=0.5 q=36.0 size=     512KiB time=00:00:02.43 bitrate=1723.8kbits/s speed=0.0173x elapsed=0:02:20.92    \nframe=   75 fps=0.5 q=36.0 size=     512KiB time=00:00:02.43 bitrate=1723.8kbits/s speed=0.0172x elapsed=0:02:21.45    \nframe=   75 fps=0.5 q=36.0 size=     512KiB time=00:00:02.43 bitrate=1723.8kbits/s speed=0.0171x elapsed=0:02:21.98    \nframe=   76 fps=0.5 q=36.0 size=     512KiB time=00:00:02.46 bitrate=1700.5kbits/s speed=0.0173x elapsed=0:02:22.50    \nframe=   76 fps=0.5 q=36.0 size=     512KiB time=00:00:02.46 bitrate=1700.5kbits/s speed=0.0172x elapsed=0:02:23.03    \nframe=   77 fps=0.5 q=32.4 size=     512KiB time=00:00:02.50 bitrate=1677.9kbits/s speed=0.0174x elapsed=0:02:23.55    \nframe=   78 fps=0.5 q=34.1 size=     512KiB time=00:00:02.53 bitrate=1655.8kbits/s speed=0.0176x elapsed=0:02:24.10    \nframe=   78 fps=0.5 q=34.1 size=     512KiB time=00:00:02.53 bitrate=1655.8kbits/s speed=0.0175x elapsed=0:02:24.63    \nframe=   78 fps=0.5 q=34.1 size=     512KiB time=00:00:02.53 bitrate=1655.8kbits/s speed=0.0175x elapsed=0:02:25.14    \nframe=   79 fps=0.5 q=35.8 size=     512KiB time=00:00:02.56 bitrate=1634.3kbits/s speed=0.0176x elapsed=0:02:25.66    \nframe=   79 fps=0.5 q=35.8 size=     512KiB time=00:00:02.56 bitrate=1634.3kbits/s speed=0.0176x elapsed=0:02:26.18    \nframe=   80 fps=0.5 q=36.1 size=     512KiB time=00:00:02.60 bitrate=1613.3kbits/s speed=0.0177x elapsed=0:02:26.70    \nframe=   80 fps=0.5 q=36.1 size=     512KiB time=00:00:02.60 bitrate=1613.3kbits/s speed=0.0177x elapsed=0:02:27.23    \nframe=   81 fps=0.5 q=33.0 size=     512KiB time=00:00:02.63 bitrate=1592.9kbits/s speed=0.0178x elapsed=0:02:27.76    \nframe=   81 fps=0.5 q=33.0 size=     512KiB time=00:00:02.63 bitrate=1592.9kbits/s speed=0.0178x elapsed=0:02:28.28    \nframe=   81 fps=0.5 q=33.0 size=     512KiB time=00:00:02.63 bitrate=1592.9kbits/s speed=0.0177x elapsed=0:02:28.80    \nframe=   82 fps=0.5 q=34.7 size=     512KiB time=00:00:02.66 bitrate=1573.0kbits/s speed=0.0179x elapsed=0:02:29.32    \nframe=   82 fps=0.5 q=34.7 size=     512KiB time=00:00:02.66 bitrate=1573.0kbits/s speed=0.0178x elapsed=0:02:29.85    \nframe=   83 fps=0.6 q=36.6 size=     512KiB time=00:00:02.70 bitrate=1553.6kbits/s speed=0.018x elapsed=0:02:30.37    \nframe=   84 fps=0.6 q=36.6 size=     512KiB time=00:00:02.73 bitrate=1534.6kbits/s speed=0.0181x elapsed=0:02:30.89    \nframe=   85 fps=0.6 q=32.8 size=     512KiB time=00:00:02.76 bitrate=1516.1kbits/s speed=0.0183x elapsed=0:02:31.41    \nframe=   85 fps=0.6 q=32.8 size=     512KiB time=00:00:02.76 bitrate=1516.1kbits/s speed=0.0182x elapsed=0:02:31.92    \nframe=   86 fps=0.6 q=36.7 size=     512KiB time=00:00:02.80 bitrate=1498.1kbits/s speed=0.0184x elapsed=0:02:32.46    \nframe=   86 fps=0.6 q=36.7 size=     512KiB time=00:00:02.80 bitrate=1498.1kbits/s speed=0.0183x elapsed=0:02:32.98    \nframe=   86 fps=0.6 q=36.7 size=     512KiB time=00:00:02.80 bitrate=1498.1kbits/s speed=0.0182x elapsed=0:02:33.55    \nframe=   86 fps=0.6 q=36.7 size=     512KiB time=00:00:02.80 bitrate=1498.1kbits/s speed=0.0182x elapsed=0:02:34.10    \nframe=   86 fps=0.6 q=36.7 size=     512KiB time=00:00:02.80 bitrate=1498.1kbits/s speed=0.0181x elapsed=0:02:34.60    \nframe=   86 fps=0.6 q=36.7 size=     512KiB time=00:00:02.80 bitrate=1498.1kbits/s speed=0.018x elapsed=0:02:35.13    \nframe=   86 fps=0.6 q=36.7 size=     512KiB time=00:00:02.80 bitrate=1498.1kbits/s speed=0.018x elapsed=0:02:35.65    \nframe=   87 fps=0.6 q=32.5 size=     512KiB time=00:00:02.83 bitrate=1480.5kbits/s speed=0.0181x elapsed=0:02:36.17    \nframe=   88 fps=0.6 q=34.9 size=     512KiB time=00:00:02.86 bitrate=1463.3kbits/s speed=0.0183x elapsed=0:02:36.70    \nframe=   88 fps=0.6 q=34.9 size=     512KiB time=00:00:02.86 bitrate=1463.3kbits/s speed=0.0182x elapsed=0:02:37.21    \nframe=   88 fps=0.6 q=34.9 size=     512KiB time=00:00:02.86 bitrate=1463.3kbits/s speed=0.0182x elapsed=0:02:37.74    \nframe=   89 fps=0.6 q=36.5 size=     512KiB time=00:00:02.90 bitrate=1446.4kbits/s speed=0.0183x elapsed=0:02:38.25    \nframe=   89 fps=0.6 q=36.5 size=     512KiB time=00:00:02.90 bitrate=1446.4kbits/s speed=0.0183x elapsed=0:02:38.76    \nframe=   89 fps=0.6 q=36.5 size=     512KiB time=00:00:02.90 bitrate=1446.4kbits/s speed=0.0182x elapsed=0:02:39.30    \nframe=   90 fps=0.6 q=36.4 size=     512KiB time=00:00:02.93 bitrate=1430.0kbits/s speed=0.0184x elapsed=0:02:39.82    \nframe=   90 fps=0.6 q=36.4 size=     512KiB time=00:00:02.93 bitrate=1430.0kbits/s speed=0.0183x elapsed=0:02:40.34    \nframe=   91 fps=0.6 q=32.6 size=     512KiB time=00:00:02.96 bitrate=1413.9kbits/s speed=0.0184x elapsed=0:02:40.85    \nframe=   91 fps=0.6 q=32.6 size=     512KiB time=00:00:02.96 bitrate=1413.9kbits/s speed=0.0184x elapsed=0:02:41.37    \nframe=   91 fps=0.6 q=32.6 size=     512KiB time=00:00:02.96 bitrate=1413.9kbits/s speed=0.0183x elapsed=0:02:41.90    \nframe=   92 fps=0.6 q=34.2 size=     512KiB time=00:00:03.00 bitrate=1398.2kbits/s speed=0.0185x elapsed=0:02:42.42    \nframe=   92 fps=0.6 q=34.2 size=     512KiB time=00:00:03.00 bitrate=1398.2kbits/s speed=0.0184x elapsed=0:02:42.94    \nframe=   93 fps=0.6 q=36.4 size=     512KiB time=00:00:03.03 bitrate=1382.9kbits/s speed=0.0186x elapsed=0:02:43.47    \nframe=   93 fps=0.6 q=36.4 size=     512KiB time=00:00:03.03 bitrate=1382.9kbits/s speed=0.0185x elapsed=0:02:43.99    \nframe=   93 fps=0.6 q=36.4 size=     512KiB time=00:00:03.03 bitrate=1382.9kbits/s speed=0.0184x elapsed=0:02:44.50    \nframe=   94 fps=0.6 q=32.6 size=     512KiB time=00:00:03.06 bitrate=1367.8kbits/s speed=0.0186x elapsed=0:02:45.01    \nframe=   95 fps=0.6 q=35.1 size=     512KiB time=00:00:03.10 bitrate=1353.1kbits/s speed=0.0187x elapsed=0:02:45.54    \nframe=   95 fps=0.6 q=35.1 size=     512KiB time=00:00:03.10 bitrate=1353.1kbits/s speed=0.0187x elapsed=0:02:46.07    \nframe=   95 fps=0.6 q=35.1 size=     512KiB time=00:00:03.10 bitrate=1353.1kbits/s speed=0.0186x elapsed=0:02:46.60    \nframe=   95 fps=0.6 q=35.1 size=     512KiB time=00:00:03.10 bitrate=1353.1kbits/s speed=0.0185x elapsed=0:02:47.14    \nframe=   96 fps=0.6 q=36.7 size=     512KiB time=00:00:03.13 bitrate=1338.7kbits/s speed=0.0187x elapsed=0:02:47.66    \nframe=   97 fps=0.6 q=37.0 size=     768KiB time=00:00:03.16 bitrate=1986.9kbits/s speed=0.0188x elapsed=0:02:48.17    \nframe=   97 fps=0.6 q=37.0 size=     768KiB time=00:00:03.16 bitrate=1986.9kbits/s speed=0.0188x elapsed=0:02:48.69    \nframe=   98 fps=0.6 q=33.2 size=     768KiB time=00:00:03.20 bitrate=1966.2kbits/s speed=0.0189x elapsed=0:02:49.21    \nframe=   98 fps=0.6 q=33.2 size=     768KiB time=00:00:03.20 bitrate=1966.2kbits/s speed=0.0189x elapsed=0:02:49.75    \nframe=   98 fps=0.6 q=33.2 size=     768KiB time=00:00:03.20 bitrate=1966.2kbits/s speed=0.0188x elapsed=0:02:50.28    \nframe=   99 fps=0.6 q=35.6 size=     768KiB time=00:00:03.23 bitrate=1945.9kbits/s speed=0.0189x elapsed=0:02:50.80    \nframe=  100 fps=0.6 q=37.5 size=     768KiB time=00:00:03.26 bitrate=1926.1kbits/s speed=0.0191x elapsed=0:02:51.32    \nframe=  100 fps=0.6 q=37.5 size=     768KiB time=00:00:03.26 bitrate=1926.1kbits/s speed=0.019x elapsed=0:02:51.85    \nframe=  101 fps=0.6 q=37.8 size=     768KiB time=00:00:03.30 bitrate=1906.6kbits/s speed=0.0191x elapsed=0:02:52.40    \nframe=  101 fps=0.6 q=37.8 size=     768KiB time=00:00:03.30 bitrate=1906.6kbits/s speed=0.0191x elapsed=0:02:52.90    \nframe=  101 fps=0.6 q=37.8 size=     768KiB time=00:00:03.30 bitrate=1906.6kbits/s speed=0.019x elapsed=0:02:53.42    \nframe=  101 fps=0.6 q=37.8 size=     768KiB time=00:00:03.30 bitrate=1906.6kbits/s speed=0.019x elapsed=0:02:53.94    \nframe=  102 fps=0.6 q=32.9 size=     768KiB time=00:00:03.30 bitrate=1906.6kbits/s speed=0.0189x elapsed=0:02:54.48    \nframe=  102 fps=0.6 q=32.9 size=     768KiB time=00:00:03.33 bitrate=1887.5kbits/s speed=0.019x elapsed=0:02:55.04    \nframe=  102 fps=0.6 q=32.9 size=     768KiB time=00:00:03.33 bitrate=1887.5kbits/s speed=0.019x elapsed=0:02:55.65    \nframe=  102 fps=0.6 q=32.9 size=     768KiB time=00:00:03.33 bitrate=1887.5kbits/s speed=0.0189x elapsed=0:02:56.22    \nframe=  102 fps=0.6 q=32.9 size=     768KiB time=00:00:03.33 bitrate=1887.5kbits/s speed=0.0189x elapsed=0:02:56.80    \nframe=  103 fps=0.6 q=36.0 size=     768KiB time=00:00:03.36 bitrate=1868.9kbits/s speed=0.019x elapsed=0:02:57.41    \nframe=  103 fps=0.6 q=36.0 size=     768KiB time=00:00:03.36 bitrate=1868.9kbits/s speed=0.0189x elapsed=0:02:57.98    \nframe=  103 fps=0.6 q=36.0 size=     768KiB time=00:00:03.36 bitrate=1868.9kbits/s speed=0.0189x elapsed=0:02:58.51    \nframe=  103 fps=0.6 q=36.0 size=     768KiB time=00:00:03.36 bitrate=1868.9kbits/s speed=0.0188x elapsed=0:02:59.02    \nframe=  103 fps=0.6 q=36.0 size=     768KiB time=00:00:03.36 bitrate=1868.9kbits/s speed=0.0187x elapsed=0:02:59.57    \nframe=  104 fps=0.6 q=37.5 size=     768KiB time=00:00:03.40 bitrate=1850.5kbits/s speed=0.0189x elapsed=0:03:00.10    \nframe=  104 fps=0.6 q=37.5 size=     768KiB time=00:00:03.40 bitrate=1850.5kbits/s speed=0.0188x elapsed=0:03:00.62    \nframe=  104 fps=0.6 q=37.5 size=     768KiB time=00:00:03.40 bitrate=1850.5kbits/s speed=0.0188x elapsed=0:03:01.15    \nframe=  104 fps=0.6 q=37.5 size=     768KiB time=00:00:03.40 bitrate=1850.5kbits/s speed=0.0187x elapsed=0:03:01.71    \nframe=  104 fps=0.6 q=37.5 size=     768KiB time=00:00:03.40 bitrate=1850.5kbits/s speed=0.0187x elapsed=0:03:02.26    \nframe=  105 fps=0.6 q=32.8 size=     768KiB time=00:00:03.43 bitrate=1832.6kbits/s speed=0.0188x elapsed=0:03:02.78    \nframe=  105 fps=0.6 q=32.8 size=     768KiB time=00:00:03.43 bitrate=1832.6kbits/s speed=0.0187x elapsed=0:03:03.29    \nframe=  106 fps=0.6 q=35.0 size=     768KiB time=00:00:03.46 bitrate=1814.9kbits/s speed=0.0189x elapsed=0:03:03.82    \nframe=  106 fps=0.6 q=35.0 size=     768KiB time=00:00:03.46 bitrate=1814.9kbits/s speed=0.0188x elapsed=0:03:04.36    \nframe=  107 fps=0.6 q=37.1 size=     768KiB time=00:00:03.50 bitrate=1797.7kbits/s speed=0.0189x elapsed=0:03:04.90    \nframe=  107 fps=0.6 q=37.1 size=     768KiB time=00:00:03.50 bitrate=1797.7kbits/s speed=0.0189x elapsed=0:03:05.42    \nframe=  107 fps=0.6 q=37.1 size=     768KiB time=00:00:03.50 bitrate=1797.7kbits/s speed=0.0188x elapsed=0:03:05.93    \nframe=  107 fps=0.6 q=37.1 size=     768KiB time=00:00:03.50 bitrate=1797.7kbits/s speed=0.0188x elapsed=0:03:06.47    \nframe=  107 fps=0.6 q=37.1 size=     768KiB time=00:00:03.50 bitrate=1797.7kbits/s speed=0.0187x elapsed=0:03:06.99    \nframe=  108 fps=0.6 q=32.7 size=     768KiB time=00:00:03.53 bitrate=1780.7kbits/s speed=0.0188x elapsed=0:03:07.49    \nframe=  108 fps=0.6 q=32.7 size=     768KiB time=00:00:03.53 bitrate=1780.7kbits/s speed=0.0188x elapsed=0:03:08.02    \nframe=  109 fps=0.6 q=35.7 size=     768KiB time=00:00:03.56 bitrate=1764.1kbits/s speed=0.0189x elapsed=0:03:08.56    \nframe=  109 fps=0.6 q=35.7 size=     768KiB time=00:00:03.56 bitrate=1764.1kbits/s speed=0.0189x elapsed=0:03:09.12    \nframe=  109 fps=0.6 q=35.7 size=     768KiB time=00:00:03.56 bitrate=1764.1kbits/s speed=0.0188x elapsed=0:03:09.66    \nframe=  109 fps=0.6 q=35.7 size=     768KiB time=00:00:03.56 bitrate=1764.1kbits/s speed=0.0187x elapsed=0:03:10.24    \nframe=  110 fps=0.6 q=37.6 size=     768KiB time=00:00:03.60 bitrate=1747.7kbits/s speed=0.0189x elapsed=0:03:10.81    \nframe=  110 fps=0.6 q=37.6 size=     768KiB time=00:00:03.60 bitrate=1747.7kbits/s speed=0.0188x elapsed=0:03:11.44    \nframe=  110 fps=0.6 q=37.6 size=     768KiB time=00:00:03.60 bitrate=1747.7kbits/s speed=0.0187x elapsed=0:03:12.02    \nframe=  110 fps=0.6 q=37.6 size=     768KiB time=00:00:03.60 bitrate=1747.7kbits/s speed=0.0187x elapsed=0:03:12.56    \nframe=  110 fps=0.6 q=37.6 size=     768KiB time=00:00:03.60 bitrate=1747.7kbits/s speed=0.0186x elapsed=0:03:13.07    \nframe=  111 fps=0.6 q=37.8 size=     768KiB time=00:00:03.63 bitrate=1731.7kbits/s speed=0.0188x elapsed=0:03:13.63    \nframe=  111 fps=0.6 q=37.8 size=     768KiB time=00:00:03.63 bitrate=1731.7kbits/s speed=0.0187x elapsed=0:03:14.15    \nframe=  111 fps=0.6 q=37.8 size=     768KiB time=00:00:03.63 bitrate=1731.7kbits/s speed=0.0187x elapsed=0:03:14.68    \nframe=  111 fps=0.6 q=37.8 size=     768KiB time=00:00:03.63 bitrate=1731.7kbits/s speed=0.0186x elapsed=0:03:15.28    \nframe=  112 fps=0.6 q=33.1 size=     768KiB time=00:00:03.66 bitrate=1715.9kbits/s speed=0.0187x elapsed=0:03:15.84    \nframe=  112 fps=0.6 q=33.1 size=     768KiB time=00:00:03.66 bitrate=1715.9kbits/s speed=0.0187x elapsed=0:03:16.35    \nframe=  112 fps=0.6 q=33.1 size=     768KiB time=00:00:03.66 bitrate=1715.9kbits/s speed=0.0186x elapsed=0:03:16.87    \nframe=  113 fps=0.6 q=35.7 size=     768KiB time=00:00:03.70 bitrate=1700.5kbits/s speed=0.0187x elapsed=0:03:17.42    \nframe=  113 fps=0.6 q=35.7 size=     768KiB time=00:00:03.70 bitrate=1700.5kbits/s speed=0.0187x elapsed=0:03:18.01    \nframe=  113 fps=0.6 q=35.7 size=     768KiB time=00:00:03.70 bitrate=1700.5kbits/s speed=0.0186x elapsed=0:03:18.58    \nframe=  113 fps=0.6 q=35.7 size=     768KiB time=00:00:03.70 bitrate=1700.5kbits/s speed=0.0186x elapsed=0:03:19.10    \nframe=  113 fps=0.6 q=35.7 size=     768KiB time=00:00:03.70 bitrate=1700.5kbits/s speed=0.0185x elapsed=0:03:19.63    \nframe=  113 fps=0.6 q=35.7 size=     768KiB time=00:00:03.70 bitrate=1700.5kbits/s speed=0.0185x elapsed=0:03:20.17    \nframe=  113 fps=0.6 q=35.7 size=     768KiB time=00:00:03.70 bitrate=1700.5kbits/s speed=0.0184x elapsed=0:03:20.75    \nframe=  114 fps=0.6 q=37.7 size=     768KiB time=00:00:03.73 bitrate=1685.3kbits/s speed=0.0185x elapsed=0:03:21.27    \nframe=  114 fps=0.6 q=37.7 size=     768KiB time=00:00:03.73 bitrate=1685.3kbits/s speed=0.0185x elapsed=0:03:21.78    \nframe=  115 fps=0.6 q=37.4 size=     768KiB time=00:00:03.76 bitrate=1670.4kbits/s speed=0.0186x elapsed=0:03:22.33    \nframe=  115 fps=0.6 q=37.4 size=     768KiB time=00:00:03.76 bitrate=1670.4kbits/s speed=0.0186x elapsed=0:03:22.91    \nframe=  115 fps=0.6 q=37.4 size=     768KiB time=00:00:03.76 bitrate=1670.4kbits/s speed=0.0185x elapsed=0:03:23.47    \nframe=  115 fps=0.6 q=37.4 size=     768KiB time=00:00:03.76 bitrate=1670.4kbits/s speed=0.0185x elapsed=0:03:23.99    \nframe=  115 fps=0.6 q=37.4 size=     768KiB time=00:00:03.76 bitrate=1670.4kbits/s speed=0.0184x elapsed=0:03:24.51    \nframe=  115 fps=0.6 q=37.4 size=     768KiB time=00:00:03.76 bitrate=1670.4kbits/s speed=0.0184x elapsed=0:03:25.06    \nframe=  116 fps=0.6 q=33.2 size=     768KiB time=00:00:03.80 bitrate=1655.7kbits/s speed=0.0185x elapsed=0:03:25.64    \nframe=  116 fps=0.6 q=33.2 size=     768KiB time=00:00:03.80 bitrate=1655.7kbits/s speed=0.0184x elapsed=0:03:26.19    \nframe=  116 fps=0.6 q=33.2 size=     768KiB time=00:00:03.80 bitrate=1655.7kbits/s speed=0.0184x elapsed=0:03:26.72    \nframe=  116 fps=0.6 q=33.2 size=     768KiB time=00:00:03.80 bitrate=1655.7kbits/s speed=0.0183x elapsed=0:03:27.27    \nframe=  116 fps=0.6 q=33.2 size=     768KiB time=00:00:03.80 bitrate=1655.7kbits/s speed=0.0183x elapsed=0:03:27.83    \nframe=  116 fps=0.6 q=33.2 size=     768KiB time=00:00:03.80 bitrate=1655.7kbits/s speed=0.0182x elapsed=0:03:28.36    \nframe=  117 fps=0.6 q=35.5 size=     768KiB time=00:00:03.83 bitrate=1641.3kbits/s speed=0.0184x elapsed=0:03:28.89    \nframe=  117 fps=0.6 q=35.5 size=     768KiB time=00:00:03.83 bitrate=1641.3kbits/s speed=0.0183x elapsed=0:03:29.47    \nframe=  117 fps=0.6 q=35.5 size=     768KiB time=00:00:03.83 bitrate=1641.3kbits/s speed=0.0182x elapsed=0:03:30.07    \nframe=  118 fps=0.6 q=37.4 size=     768KiB time=00:00:03.86 bitrate=1627.2kbits/s speed=0.0184x elapsed=0:03:30.64    \nframe=  118 fps=0.6 q=37.4 size=     768KiB time=00:00:03.86 bitrate=1627.2kbits/s speed=0.0183x elapsed=0:03:31.18    \nframe=  118 fps=0.6 q=37.4 size=     768KiB time=00:00:03.86 bitrate=1627.2kbits/s speed=0.0183x elapsed=0:03:31.74    \nframe=  119 fps=0.6 q=37.5 size=     768KiB time=00:00:03.90 bitrate=1613.3kbits/s speed=0.0184x elapsed=0:03:32.27    \nframe=  119 fps=0.6 q=37.5 size=     768KiB time=00:00:03.90 bitrate=1613.3kbits/s speed=0.0183x elapsed=0:03:32.81    \nframe=  119 fps=0.6 q=37.5 size=     768KiB time=00:00:03.90 bitrate=1613.3kbits/s speed=0.0183x elapsed=0:03:33.38    \nframe=  119 fps=0.6 q=37.5 size=     768KiB time=00:00:03.90 bitrate=1613.3kbits/s speed=0.0182x elapsed=0:03:33.99    \nframe=  119 fps=0.6 q=37.5 size=     768KiB time=00:00:03.90 bitrate=1613.3kbits/s speed=0.0182x elapsed=0:03:34.55    \nframe=  119 fps=0.6 q=37.5 size=     768KiB time=00:00:03.90 bitrate=1613.3kbits/s speed=0.0181x elapsed=0:03:35.12    \nframe=  119 fps=0.6 q=37.5 size=     768KiB time=00:00:03.90 bitrate=1613.3kbits/s speed=0.0181x elapsed=0:03:35.68    \nframe=  119 fps=0.6 q=37.5 size=     768KiB time=00:00:03.90 bitrate=1613.3kbits/s speed=0.018x elapsed=0:03:36.25    \nframe=  120 fps=0.6 q=33.1 size=     768KiB time=00:00:03.93 bitrate=1599.6kbits/s speed=0.0181x elapsed=0:03:36.83    \nframe=  120 fps=0.6 q=33.1 size=     768KiB time=00:00:03.93 bitrate=1599.6kbits/s speed=0.0181x elapsed=0:03:37.35    \nframe=  120 fps=0.6 q=33.1 size=     768KiB time=00:00:03.93 bitrate=1599.6kbits/s speed=0.018x elapsed=0:03:37.91    \nframe=  120 fps=0.5 q=33.1 size=     768KiB time=00:00:03.93 bitrate=1599.6kbits/s speed=0.018x elapsed=0:03:38.44    \nframe=  121 fps=0.6 q=37.7 size=     768KiB time=00:00:03.96 bitrate=1586.2kbits/s speed=0.0181x elapsed=0:03:39.04    \nframe=  121 fps=0.6 q=37.7 size=     768KiB time=00:00:03.96 bitrate=1586.2kbits/s speed=0.0181x elapsed=0:03:39.57    \nframe=  122 fps=0.6 q=32.7 size=     768KiB time=00:00:04.00 bitrate=1573.0kbits/s speed=0.0182x elapsed=0:03:40.07    \nframe=  122 fps=0.6 q=32.7 size=     768KiB time=00:00:04.00 bitrate=1573.0kbits/s speed=0.0181x elapsed=0:03:40.60    \nframe=  122 fps=0.6 q=32.7 size=     768KiB time=00:00:04.00 bitrate=1573.0kbits/s speed=0.0181x elapsed=0:03:41.11    \nframe=  122 fps=0.6 q=32.7 size=     768KiB time=00:00:04.00 bitrate=1573.0kbits/s speed=0.018x elapsed=0:03:41.63    \nframe=  123 fps=0.6 q=35.8 size=     768KiB time=00:00:04.03 bitrate=1560.0kbits/s speed=0.0182x elapsed=0:03:42.14    \nframe=  123 fps=0.6 q=35.8 size=     768KiB time=00:00:04.03 bitrate=1560.0kbits/s speed=0.0181x elapsed=0:03:42.67    \nframe=  124 fps=0.6 q=37.7 size=     768KiB time=00:00:04.06 bitrate=1547.2kbits/s speed=0.0182x elapsed=0:03:43.18    \nframe=  124 fps=0.6 q=37.7 size=     768KiB time=00:00:04.06 bitrate=1547.2kbits/s speed=0.0182x elapsed=0:03:43.70    \nframe=  125 fps=0.6 q=37.7 size=    1024KiB time=00:00:04.10 bitrate=2046.1kbits/s speed=0.0183x elapsed=0:03:44.22    \nframe=  125 fps=0.6 q=37.7 size=    1024KiB time=00:00:04.10 bitrate=2046.1kbits/s speed=0.0182x elapsed=0:03:44.74    \nframe=  125 fps=0.6 q=37.7 size=    1024KiB time=00:00:04.10 bitrate=2046.1kbits/s speed=0.0182x elapsed=0:03:45.26    \nframe=  126 fps=0.6 q=33.0 size=    1024KiB time=00:00:04.13 bitrate=2029.6kbits/s speed=0.0183x elapsed=0:03:45.78    \nframe=  126 fps=0.6 q=33.0 size=    1024KiB time=00:00:04.13 bitrate=2029.6kbits/s speed=0.0183x elapsed=0:03:46.31    \nframe=  126 fps=0.6 q=33.0 size=    1024KiB time=00:00:04.13 bitrate=2029.6kbits/s speed=0.0182x elapsed=0:03:46.86    \nframe=  127 fps=0.6 q=35.7 size=    1024KiB time=00:00:04.16 bitrate=2013.4kbits/s speed=0.0183x elapsed=0:03:47.42    \nframe=  127 fps=0.6 q=35.7 size=    1024KiB time=00:00:04.16 bitrate=2013.4kbits/s speed=0.0183x elapsed=0:03:47.94    \nframe=  127 fps=0.6 q=35.7 size=    1024KiB time=00:00:04.16 bitrate=2013.4kbits/s speed=0.0182x elapsed=0:03:48.44    \nframe=  127 fps=0.6 q=35.7 size=    1024KiB time=00:00:04.16 bitrate=2013.4kbits/s speed=0.0182x elapsed=0:03:48.97    \nframe=  128 fps=0.6 q=37.6 size=    1024KiB time=00:00:04.20 bitrate=1997.4kbits/s speed=0.0183x elapsed=0:03:49.50    \nframe=  128 fps=0.6 q=37.6 size=    1024KiB time=00:00:04.20 bitrate=1997.4kbits/s speed=0.0183x elapsed=0:03:50.01    \nframe=  129 fps=0.6 q=37.8 size=    1024KiB time=00:00:04.23 bitrate=1981.6kbits/s speed=0.0184x elapsed=0:03:50.56    \nframe=  129 fps=0.6 q=37.8 size=    1024KiB time=00:00:04.23 bitrate=1981.6kbits/s speed=0.0183x elapsed=0:03:51.08    \nframe=  130 fps=0.6 q=32.9 size=    1024KiB time=00:00:04.26 bitrate=1966.2kbits/s speed=0.0184x elapsed=0:03:51.59    \nframe=  131 fps=0.6 q=36.0 size=    1024KiB time=00:00:04.30 bitrate=1950.9kbits/s speed=0.0185x elapsed=0:03:52.11    \nframe=  131 fps=0.6 q=36.0 size=    1024KiB time=00:00:04.30 bitrate=1950.9kbits/s speed=0.0185x elapsed=0:03:52.62    \nframe=  132 fps=0.6 q=38.1 size=    1024KiB time=00:00:04.33 bitrate=1935.9kbits/s speed=0.0186x elapsed=0:03:53.14    \nframe=  132 fps=0.6 q=38.1 size=    1024KiB time=00:00:04.33 bitrate=1935.9kbits/s speed=0.0185x elapsed=0:03:53.66    \nframe=  133 fps=0.6 q=38.3 size=    1024KiB time=00:00:04.36 bitrate=1921.1kbits/s speed=0.0186x elapsed=0:03:54.18    \nframe=  133 fps=0.6 q=38.3 size=    1024KiB time=00:00:04.36 bitrate=1921.1kbits/s speed=0.0186x elapsed=0:03:54.70    \nframe=  133 fps=0.6 q=38.3 size=    1024KiB time=00:00:04.36 bitrate=1921.1kbits/s speed=0.0186x elapsed=0:03:55.21    \nframe=  133 fps=0.6 q=38.3 size=    1024KiB time=00:00:04.36 bitrate=1921.1kbits/s speed=0.0185x elapsed=0:03:55.75    \nframe=  133 fps=0.6 q=38.3 size=    1024KiB time=00:00:04.36 bitrate=1921.1kbits/s speed=0.0185x elapsed=0:03:56.26    \nframe=  134 fps=0.6 q=33.3 size=    1024KiB time=00:00:04.40 bitrate=1906.6kbits/s speed=0.0186x elapsed=0:03:56.80    \nframe=  134 fps=0.6 q=33.3 size=    1024KiB time=00:00:04.40 bitrate=1906.6kbits/s speed=0.0185x elapsed=0:03:57.33    \nframe=  135 fps=0.6 q=35.8 size=    1024KiB time=00:00:04.43 bitrate=1892.2kbits/s speed=0.0186x elapsed=0:03:57.85    \nframe=  135 fps=0.6 q=35.8 size=    1024KiB time=00:00:04.43 bitrate=1892.2kbits/s speed=0.0186x elapsed=0:03:58.37    \nframe=  136 fps=0.6 q=38.0 size=    1024KiB time=00:00:04.46 bitrate=1878.1kbits/s speed=0.0187x elapsed=0:03:58.89    \nframe=  136 fps=0.6 q=38.0 size=    1024KiB time=00:00:04.46 bitrate=1878.1kbits/s speed=0.0187x elapsed=0:03:59.42    \nframe=  137 fps=0.6 q=38.0 size=    1024KiB time=00:00:04.50 bitrate=1864.2kbits/s speed=0.0188x elapsed=0:03:59.95    \nframe=  137 fps=0.6 q=38.0 size=    1024KiB time=00:00:04.50 bitrate=1864.2kbits/s speed=0.0187x elapsed=0:04:00.48    \nframe=  137 fps=0.6 q=38.0 size=    1024KiB time=00:00:04.50 bitrate=1864.2kbits/s speed=0.0187x elapsed=0:04:01.01    \nframe=  137 fps=0.6 q=38.0 size=    1024KiB time=00:00:04.50 bitrate=1864.2kbits/s speed=0.0186x elapsed=0:04:01.52    \nframe=  138 fps=0.6 q=33.0 size=    1024KiB time=00:00:04.53 bitrate=1850.5kbits/s speed=0.0187x elapsed=0:04:02.06    \nframe=  138 fps=0.6 q=33.0 size=    1024KiB time=00:00:04.53 bitrate=1850.5kbits/s speed=0.0187x elapsed=0:04:02.62    \nframe=  139 fps=0.6 q=36.1 size=    1024KiB time=00:00:04.56 bitrate=1837.0kbits/s speed=0.0188x elapsed=0:04:03.15    \nframe=  139 fps=0.6 q=36.1 size=    1024KiB time=00:00:04.56 bitrate=1837.0kbits/s speed=0.0187x elapsed=0:04:03.67    \nframe=  139 fps=0.6 q=36.1 size=    1024KiB time=00:00:04.56 bitrate=1837.0kbits/s speed=0.0187x elapsed=0:04:04.18    \nframe=  140 fps=0.6 q=37.8 size=    1024KiB time=00:00:04.60 bitrate=1823.7kbits/s speed=0.0188x elapsed=0:04:04.70    \nframe=  140 fps=0.6 q=37.8 size=    1024KiB time=00:00:04.60 bitrate=1823.7kbits/s speed=0.0188x elapsed=0:04:05.22    \nframe=  141 fps=0.6 q=38.1 size=    1024KiB time=00:00:04.63 bitrate=1810.6kbits/s speed=0.0189x elapsed=0:04:05.75    \nframe=  141 fps=0.6 q=38.1 size=    1024KiB time=00:00:04.63 bitrate=1810.6kbits/s speed=0.0188x elapsed=0:04:06.26    \nframe=  141 fps=0.6 q=38.1 size=    1024KiB time=00:00:04.63 bitrate=1810.6kbits/s speed=0.0188x elapsed=0:04:06.79    \nframe=  141 fps=0.6 q=38.1 size=    1024KiB time=00:00:04.63 bitrate=1810.6kbits/s speed=0.0187x elapsed=0:04:07.31    \nframe=  142 fps=0.6 q=33.7 size=    1024KiB time=00:00:04.66 bitrate=1797.6kbits/s speed=0.0188x elapsed=0:04:07.82    \nframe=  143 fps=0.6 q=35.9 size=    1024KiB time=00:00:04.70 bitrate=1784.9kbits/s speed=0.0189x elapsed=0:04:08.34    \nframe=  143 fps=0.6 q=35.9 size=    1024KiB time=00:00:04.70 bitrate=1784.9kbits/s speed=0.0189x elapsed=0:04:08.90    \nframe=  143 fps=0.6 q=35.9 size=    1024KiB time=00:00:04.70 bitrate=1784.9kbits/s speed=0.0188x elapsed=0:04:09.45    \nframe=  143 fps=0.6 q=35.9 size=    1024KiB time=00:00:04.70 bitrate=1784.9kbits/s speed=0.0188x elapsed=0:04:09.96    \nframe=  144 fps=0.6 q=38.0 size=    1024KiB time=00:00:04.73 bitrate=1772.3kbits/s speed=0.0189x elapsed=0:04:10.48    \nframe=  144 fps=0.6 q=38.0 size=    1024KiB time=00:00:04.73 bitrate=1772.3kbits/s speed=0.0189x elapsed=0:04:11.01    \nframe=  145 fps=0.6 q=38.4 size=    1024KiB time=00:00:04.76 bitrate=1759.9kbits/s speed=0.0189x elapsed=0:04:11.54    \nframe=  145 fps=0.6 q=38.4 size=    1024KiB time=00:00:04.76 bitrate=1759.9kbits/s speed=0.0189x elapsed=0:04:12.06    \nframe=  147 fps=0.6 q=35.2 size=    1024KiB time=00:00:04.83 bitrate=1735.6kbits/s speed=0.0191x elapsed=0:04:12.58    \nframe=  147 fps=0.6 q=35.2 size=    1024KiB time=00:00:04.83 bitrate=1735.6kbits/s speed=0.0191x elapsed=0:04:13.09    \nframe=  147 fps=0.6 q=35.2 size=    1024KiB time=00:00:04.83 bitrate=1735.6kbits/s speed=0.0191x elapsed=0:04:13.63    \nframe=  148 fps=0.6 q=35.9 size=    1024KiB time=00:00:04.86 bitrate=1723.8kbits/s speed=0.0191x elapsed=0:04:14.15    \n[mp4 @ 000001cb941dc680] Starting second pass: moving the moov atom to the beginning of the file\n[out#0/mp4 @ 000001cb941dc580] video:1220KiB audio:0KiB subtitle:0KiB other streams:0KiB global headers:2KiB muxing overhead: 0.425273%\nframe=  150 fps=0.6 q=37.7 Lsize=    1225KiB time=00:00:04.93 bitrate=2034.2kbits/s speed=0.0194x elapsed=0:04:14.58    \nx265 [info]: frame I:      1, Avg QP:35.62  kb/s: 4733.28 \nx265 [info]: frame P:     42, Avg QP:33.36  kb/s: 3187.01 \nx265 [info]: frame B:    107, Avg QP:36.72  kb/s: 1505.12 \nx265 [info]: Weighted P-Frames: Y:11.9% UV:9.5%\n\nencoded 150 frames in 253.93s (0.59 fps), 1997.57 kb/s, Avg QP:35.77\n",
  "seconds": 254.86284232139587,
  "probe_out": {}
}